<svg width="1555" height="876" viewBox="0 0 1728 973" fill="none" xmlns="http://www.w3.org/2000/svg">
  <path d="M973.509 1369.52C817.42 1497.72 645.049 1589.37 475.999 1636.05C447.816 1588.27 422.493 1536.53 400.492 1481.98C432.041 1485.94 464.145 1488.15 497.401 1488.15C650.077 1488.15 813.499 1445.98 973.509 1369.52ZM114.283 1263.78C74.8456 1222.72 46.1094 1174.94 24.1536 1123.2C92.3271 1142.9 163.314 1158.04 237.115 1168.17C246.709 1237.91 260.777 1305.95 279.366 1371.18C215.713 1347.01 160.501 1311.01 114.836 1263.78M-147.156 1524.7C-264.915 1402.66 -304.906 1217.66 -262.101 1003.42C-202.369 1037.71 -138.715 1067.54 -71.0955 1092.26C-46.8796 1178.3 -4.6286 1255.31 56.8105 1318.88C124.431 1388.62 209.486 1437.51 308.656 1464.53C332.872 1532.02 361.608 1595.54 395.418 1655.16C341.312 1665.28 288.361 1670.35 236.516 1670.35C77.0597 1670.35 -55.3667 1619.76 -147.203 1524.7M468.665 1184.51C837.715 1184.51 1165.62 1064.18 1370.14 879.727C1327.89 964.06 1275.49 1046.74 1212.95 1125.45C986.424 1304.84 727.844 1408.83 497.401 1408.83C452.337 1408.83 410.086 1404.32 369.495 1396.45C346.94 1326.71 329.504 1253.06 318.204 1176.59C367.789 1181.11 417.374 1183.91 468.065 1183.91L468.619 1184.47L468.665 1184.51ZM520.51 1705.19C729.551 1642.77 941.959 1516.83 1123.37 1342.5C1176.88 1291.31 1225.91 1237.36 1270.97 1181.66C1309.86 1150.17 1348.14 1116.98 1384.76 1081.58C1482.78 987.675 1565.62 884.192 1633.24 776.797C1638.87 829.091 1641.13 883.088 1641.13 937.637C1641.13 1510.06 1340.25 1976.79 970.649 1976.79C803.306 1976.79 645.003 1881.18 520.464 1706.3M1533.01 670C1557.78 619.962 1574.71 568.221 1583.15 514.224C1596.11 558.093 1606.81 603.068 1615.25 649.745C1570.74 732.421 1516.64 813.393 1452.98 890.407C1487.35 817.306 1514.38 743.653 1533.01 669.402M-242.359 923.044C-195.588 761.652 -107.119 599.707 15.1131 452.954C-74.4626 641.874 -111.64 833.096 -89.684 1000.06C-143.789 977.548 -194.481 951.677 -242.359 923.044ZM-5.18219 1031.59C-54.7671 795.44 39.3289 489.504 253.997 219.059C334.578 155.533 419.08 101.536 505.289 58.2191C480.519 87.4502 457.411 118.384 434.855 152.127C296.802 362.452 220.187 640.769 220.187 936.532C220.187 987.123 223.001 1037.21 227.521 1086.65C146.386 1074.26 68.6186 1055.71 -5.18219 1031.54M308.656 1096.22C303.582 1043.93 300.215 990.529 300.215 936.532C300.215 655.96 371.755 392.788 501.368 195.398C565.021 98.6823 638.269 23.8784 718.296 -26.1597C803.398 -50.3271 887.346 -63.2625 967.881 -63.2625C1126.78 -63.2625 1259.16 -13.2244 1351.6 81.8341L1352.15 82.9389C1473.83 208.886 1513.32 402.317 1462.58 626.13C1460.87 632.299 1459.21 639.066 1457.5 645.234C1320.6 911.766 929.551 1104.65 469.219 1104.65H468.112C414.006 1104.65 361.054 1101.28 308.102 1095.67M771.248 -204.953C812.946 -196.529 852.937 -186.954 892.374 -175.721C820.833 -165.042 751.507 -139.171 685.593 -99.2604C621.34 -80.709 557.687 -54.8384 494.034 -24.4565C581.949 -97.0048 676.045 -157.17 771.248 -204.953ZM-572.526 435.507C-572.526 66.6432 -105.459 -234.184 468.158 -234.184C527.337 -234.184 584.809 -230.823 641.682 -224.609C537.438 -162.74 436.008 -86.279 343.065 3.1174C290.113 53.7079 242.189 107.152 198.277 161.702C158.287 193.741 118.849 227.483 81.626 264.033C-107.12 445.68 -244.02 660.471 -312.193 876.965C-480.644 754.379 -572.48 598.602 -572.48 435.001M1516.68 171.231C1495.83 134.68 1470.46 99.2346 1441.73 65.5384C1431.03 52.0506 1420.33 39.6678 1408.47 27.2848C1401.14 19.9655 1393.25 13.2447 1385.92 6.47778C1339.7 -39.6475 1290.11 -77.8549 1237.72 -107.684C1137.44 -170.658 1020.23 -221.847 891.221 -257.246C1006.17 -300.563 1121.11 -324.178 1229.27 -324.178C1388.73 -324.178 1521.16 -274.14 1612.99 -179.082C1735.27 -52.5828 1774.71 140.296 1723.97 364.662C1711.01 420.914 1692.97 477.673 1669.87 533.926C1634.95 397.852 1581.95 275.265 1516.59 170.678M759.394 -287.03C666.405 -303.878 568.942 -312.9 468.112 -312.9C-149.417 -312.9 -652 22.8196 -652 435.553C-652 633.496 -539.315 818.503 -334.241 958.49C-334.241 960.193 -335.348 961.85 -335.348 963.001C-392.267 1214.34 -345.496 1433.09 -204.075 1579.29C-96.4645 1690.65 55.6573 1749.11 237.115 1749.11C302.475 1749.11 370.095 1741.24 439.375 1726.05C580.796 1938.03 769.542 2055 971.248 2055C1384.81 2055 1721.2 1553.42 1721.2 936.578C1721.2 842.118 1713.32 750.466 1698.65 663.279C1745.42 571.075 1780.89 476.615 1802.34 382.109C1817.56 314.071 1825.45 248.29 1826 185.869V175.742C1824.89 11.5414 1772.49 -130.149 1671.06 -234.736C1564.01 -345.492 1411.33 -404 1230.47 -404C1080.06 -404 917.789 -362.938 759.994 -287.582" fill="url(#paint0_linear_2291_613)"/>
  <defs>
    <linearGradient id="paint0_linear_2291_613" x1="587" y1="-404" x2="587" y2="2055" gradientUnits="userSpaceOnUse">
      <stop stop-color="#CE9728"/>
      <stop offset="0.19" stop-color="#E5B543"/>
      <stop offset="0.4" stop-color="#FCE674"/>
      <stop offset="0.6" stop-color="#EDC04D"/>
      <stop offset="0.8" stop-color="#D19A29"/>
      <stop offset="1" stop-color="#EEB538"/>
    </linearGradient>
  </defs>
</svg>
