<svg width="1528" height="70" viewBox="0 0 1528 70" fill="none" xmlns="http://www.w3.org/2000/svg">
<path d="M30.8164 31.2776L717.922 31.2771" stroke="url(#paint0_linear_2292_1192)" stroke-width="2.316"/>
<ellipse cx="6.90776" cy="31.2774" rx="6.90776" ry="6.9" fill="url(#paint1_linear_2292_1192)"/>
<path d="M773.632 44.941C769.742 48.1609 765.446 50.4628 761.233 51.6352C760.53 50.4351 759.899 49.1356 759.351 47.7655C760.137 47.865 760.937 47.9204 761.766 47.9204C765.571 47.9204 769.644 46.8614 773.632 44.941ZM752.217 42.2853C751.235 41.254 750.518 40.0539 749.971 38.7544C751.67 39.2492 753.439 39.6296 755.279 39.8839C755.518 41.6355 755.869 43.3443 756.332 44.9826C754.745 44.3756 753.369 43.4715 752.231 42.2853M745.702 48.8384C742.767 45.7734 741.77 41.1268 742.837 35.746C744.325 36.6074 745.912 37.3566 747.597 37.9774C748.201 40.1383 749.254 42.0726 750.785 43.6692C752.47 45.4208 754.59 46.6487 757.062 47.3273C757.665 49.0223 758.382 50.6178 759.224 52.115C757.876 52.3694 756.556 52.4965 755.264 52.4965C751.29 52.4965 747.989 51.2259 745.7 48.8384M761.05 40.2944C770.248 40.2944 778.42 37.2722 783.518 32.6394C782.465 34.7575 781.159 36.834 779.6 38.811C773.954 43.3166 767.509 45.9284 761.766 45.9284C760.643 45.9284 759.59 45.8151 758.578 45.6174C758.016 43.8658 757.581 42.0159 757.3 40.0955C758.536 40.2088 759.771 40.2794 761.035 40.2794L761.049 40.2932L761.05 40.2944ZM762.342 53.3718C767.552 51.804 772.846 48.6407 777.367 44.2623C778.701 42.9767 779.923 41.6217 781.046 40.2227C782.015 39.4319 782.969 38.5983 783.882 37.7092C786.325 35.3506 788.39 32.7516 790.075 30.0542C790.215 31.3676 790.272 32.7238 790.272 34.0939C790.272 48.4708 782.773 60.1931 773.561 60.1931C769.39 60.1931 765.445 57.7918 762.341 53.3995M787.577 27.3719C788.194 26.1152 788.616 24.8157 788.826 23.4595C789.15 24.5613 789.416 25.6909 789.627 26.8632C788.517 28.9397 787.169 30.9734 785.582 32.9076C786.439 31.0717 787.112 29.2218 787.577 27.3569M743.329 33.7274C744.494 29.6739 746.699 25.6065 749.746 21.9206C747.513 26.6655 746.587 31.4682 747.134 35.6616C745.785 35.0963 744.522 34.4465 743.329 33.7274ZM749.24 36.4536C748.004 30.5225 750.349 22.8386 755.7 16.0461C757.708 14.4506 759.814 13.0945 761.963 12.0065C761.345 12.7407 760.769 13.5176 760.207 14.3651C756.766 19.6476 754.857 26.6378 754.857 34.0661C754.857 35.3368 754.927 36.5947 755.04 37.8364C753.018 37.5254 751.079 37.0594 749.24 36.4524M757.062 38.0769C756.935 36.7635 756.851 35.4223 756.851 34.0661C756.851 27.0193 758.635 20.4095 761.865 15.4519C763.451 13.0228 765.277 11.144 767.271 9.88726C769.392 9.28027 771.485 8.95539 773.492 8.95539C777.452 8.95539 780.752 10.2121 783.055 12.5996L783.069 12.6274C786.102 15.7906 787.086 20.6488 785.821 26.2701C785.779 26.425 785.738 26.595 785.695 26.7499C782.283 33.4441 772.537 38.2884 761.064 38.2884H761.036C759.688 38.2884 758.368 38.204 757.048 38.063M768.591 5.39672C769.63 5.60829 770.627 5.84878 771.61 6.13088C769.827 6.39911 768.099 7.04887 766.456 8.05127C764.855 8.5172 763.269 9.16697 761.682 9.93004C763.873 8.10792 766.218 6.59681 768.591 5.39672ZM735.1 21.4824C735.1 12.2181 746.741 4.66255 761.037 4.66255C762.512 4.66255 763.945 4.74695 765.362 4.90303C762.764 6.45692 760.236 8.37731 757.919 10.6226C756.6 11.8932 755.405 13.2355 754.311 14.6056C753.314 15.4103 752.331 16.2577 751.404 17.1757C746.699 21.7379 743.287 27.1326 741.588 32.5701C737.39 29.4912 735.101 25.5787 735.101 21.4697M787.17 14.8449C786.65 13.9269 786.018 13.0367 785.302 12.1903C785.035 11.8516 784.768 11.5406 784.473 11.2296C784.29 11.0457 784.094 10.8769 783.911 10.707C782.759 9.5485 781.523 8.58889 780.217 7.83969C777.718 6.25806 774.797 4.9724 771.581 4.08331C774.446 2.99536 777.311 2.40225 780.007 2.40225C783.981 2.40225 787.281 3.659 789.57 6.04648C792.618 9.22362 793.601 14.0679 792.336 19.7031C792.013 21.1159 791.564 22.5415 790.988 23.9543C790.117 20.5367 788.797 17.4578 787.168 14.831M768.296 3.33528C765.978 2.91212 763.549 2.68551 761.036 2.68551C745.645 2.68551 733.119 11.1174 733.119 21.4836C733.119 26.4551 735.928 31.1017 741.039 34.6176C741.039 34.6604 741.011 34.702 741.011 34.7309C739.593 41.0436 740.758 46.5377 744.283 50.2097C746.965 53.0064 750.756 54.4747 755.279 54.4747C756.908 54.4747 758.593 54.277 760.32 53.8955C763.845 59.2196 768.549 62.1575 773.576 62.1575C783.883 62.1575 792.267 49.5599 792.267 34.0673C792.267 31.6948 792.071 29.3929 791.705 27.2031C792.871 24.8873 793.755 22.5149 794.289 20.1413C794.669 18.4325 794.865 16.7803 794.879 15.2126V14.9582C794.852 10.8342 793.546 7.27548 791.018 4.64868C788.349 1.86695 784.544 0.397461 780.037 0.397461C776.288 0.397461 772.243 1.42876 768.311 3.3214" fill="url(#paint2_linear_2292_1192)"/>
<path d="M1497.18 31.2776L810.078 31.2771" stroke="url(#paint3_linear_2292_1192)" stroke-width="2.316"/>
<ellipse cx="6.90776" cy="6.9" rx="6.90776" ry="6.9" transform="matrix(-1 0 0 1 1528 24.3774)" fill="url(#paint4_linear_2292_1192)"/>
<defs>
<linearGradient id="paint0_linear_2292_1192" x1="374.369" y1="31.2771" x2="374.369" y2="31.2776" gradientUnits="userSpaceOnUse">
<stop stop-color="#CE9728"/>
<stop offset="0.29" stop-color="#E5B543"/>
<stop offset="0.535" stop-color="#FCE674"/>
<stop offset="0.63" stop-color="#EDC04D"/>
<stop offset="0.75" stop-color="#EEB538"/>
<stop offset="0.9375" stop-color="#D19A29"/>
</linearGradient>
<linearGradient id="paint1_linear_2292_1192" x1="6.90776" y1="24.3774" x2="6.90776" y2="38.1774" gradientUnits="userSpaceOnUse">
<stop stop-color="#CE9728"/>
<stop offset="0.29" stop-color="#E5B543"/>
<stop offset="0.535" stop-color="#FCE674"/>
<stop offset="0.63" stop-color="#EDC04D"/>
<stop offset="0.75" stop-color="#EEB538"/>
<stop offset="0.9375" stop-color="#D19A29"/>
</linearGradient>
<linearGradient id="paint2_linear_2292_1192" x1="763.999" y1="0.397461" x2="763.999" y2="62.1575" gradientUnits="userSpaceOnUse">
<stop stop-color="#CE9728"/>
<stop offset="0.29" stop-color="#E5B543"/>
<stop offset="0.535" stop-color="#FCE674"/>
<stop offset="0.63" stop-color="#EDC04D"/>
<stop offset="0.75" stop-color="#EEB538"/>
<stop offset="0.9375" stop-color="#D19A29"/>
</linearGradient>
<linearGradient id="paint3_linear_2292_1192" x1="1153.63" y1="31.2771" x2="1153.63" y2="31.2776" gradientUnits="userSpaceOnUse">
<stop stop-color="#CE9728"/>
<stop offset="0.29" stop-color="#E5B543"/>
<stop offset="0.535" stop-color="#FCE674"/>
<stop offset="0.63" stop-color="#EDC04D"/>
<stop offset="0.75" stop-color="#EEB538"/>
<stop offset="0.9375" stop-color="#D19A29"/>
</linearGradient>
<linearGradient id="paint4_linear_2292_1192" x1="6.90776" y1="0" x2="6.90776" y2="13.8" gradientUnits="userSpaceOnUse">
<stop stop-color="#CE9728"/>
<stop offset="0.29" stop-color="#E5B543"/>
<stop offset="0.535" stop-color="#FCE674"/>
<stop offset="0.63" stop-color="#EDC04D"/>
<stop offset="0.75" stop-color="#EEB538"/>
<stop offset="0.9375" stop-color="#D19A29"/>
</linearGradient>
</defs>
</svg>
