<svg width="393" height="809" viewBox="0 0 393 809" fill="none" xmlns="http://www.w3.org/2000/svg">
<path d="M298.912 974.41C196.371 1058.64 83.134 1118.85 -27.9213 1149.51C-46.4357 1118.12 -63.0712 1084.13 -77.5251 1048.29C-56.7988 1050.89 -35.7089 1052.34 -13.8614 1052.34C86.4369 1052.34 193.796 1024.64 298.912 974.41ZM-265.547 904.943C-291.454 877.966 -310.332 846.575 -324.756 812.582C-279.97 825.526 -233.336 835.476 -184.853 842.129C-178.551 887.947 -169.309 932.645 -157.097 975.498C-198.913 959.621 -235.184 935.971 -265.183 904.943M-437.296 1076.36C-514.656 996.184 -540.928 874.64 -512.808 733.891C-473.567 756.422 -431.751 776.019 -387.329 792.259C-371.42 848.782 -343.664 899.378 -303.302 941.143C-258.88 986.96 -203.004 1019.08 -137.856 1036.83C-121.947 1081.17 -103.069 1122.9 -80.8583 1162.06C-116.402 1168.72 -151.188 1172.04 -185.247 1172.04C-290 1172.04 -376.996 1138.81 -437.326 1076.36M-32.7393 852.865C209.704 852.865 425.118 773.811 559.475 652.63C531.719 708.034 497.297 762.349 456.208 814.064C307.396 931.919 137.525 1000.24 -13.8614 1000.24C-43.4661 1000.24 -71.2224 997.273 -97.8878 992.102C-112.705 946.284 -124.159 897.896 -131.583 847.663C-99.009 850.627 -66.4347 852.472 -33.1332 852.472L-32.7696 852.835L-32.7393 852.865ZM1.31976 1194.94C138.647 1153.93 278.186 1071.19 397.362 956.657C432.512 923.028 464.722 887.584 494.327 850.99C519.871 830.304 545.022 808.499 569.081 785.243C633.472 723.548 687.894 655.563 732.316 585.008C736.013 619.363 737.497 654.837 737.497 690.675C737.497 1066.74 539.84 1373.37 297.033 1373.37C187.099 1373.37 83.1038 1310.55 1.28937 1195.66M666.47 514.845C682.742 481.971 693.863 447.979 699.408 412.504C707.923 441.325 714.953 470.872 720.498 501.538C691.257 555.854 655.713 609.05 613.897 659.646C636.472 611.621 654.229 563.233 666.47 514.452M-499.839 681.088C-469.113 575.058 -410.994 468.665 -330.695 372.252C-389.541 496.367 -413.964 621.994 -399.54 731.684C-435.084 716.895 -468.386 699.899 -499.839 681.088ZM-344.028 752.4C-376.602 597.256 -314.787 396.264 -173.763 218.59C-120.826 176.855 -65.3135 141.381 -8.67987 112.922C-24.9518 132.126 -40.1329 152.449 -54.9504 174.617C-145.643 312.795 -195.974 495.641 -195.974 689.949C-195.974 723.185 -194.126 756.089 -191.156 788.57C-244.457 780.434 -295.545 768.247 -344.028 752.369M-137.856 794.86C-141.189 760.505 -143.401 725.423 -143.401 689.949C-143.401 505.621 -96.403 332.725 -11.2555 203.045C30.5607 139.505 78.6797 90.3615 131.253 57.4879C187.159 41.6106 242.308 33.1124 295.215 33.1124C399.604 33.1124 486.57 65.986 547.294 128.437L547.658 129.163C627.593 211.906 653.532 338.985 620.2 486.024C619.079 490.076 617.988 494.522 616.867 498.575C526.931 673.678 270.034 800.394 -32.3757 800.394H-33.1029C-68.6467 800.394 -103.433 798.187 -138.219 794.497M166.039 -59.9739C193.432 -54.4396 219.703 -48.1491 245.611 -40.7699C198.614 -33.7537 153.07 -16.7574 109.769 9.4628C67.559 21.6505 25.7428 38.6468 -16.0734 58.6068C41.6814 10.9447 103.497 -28.5822 166.039 -59.9739ZM-716.738 360.79C-716.738 118.457 -409.903 -79.1779 -33.0726 -79.1779C5.80438 -79.1779 43.5602 -76.9702 80.9221 -72.8875C12.4404 -32.2416 -54.1928 17.9912 -115.251 76.7221C-150.037 109.959 -181.52 145.07 -210.367 180.907C-236.639 201.956 -262.547 224.124 -287 248.136C-410.994 367.473 -500.93 508.585 -545.715 650.815C-656.377 570.279 -716.707 467.939 -716.707 360.457M655.744 187.168C642.047 163.155 625.381 139.868 606.503 117.731C599.474 108.87 592.444 100.735 584.656 92.5994C579.838 87.7909 574.656 83.3754 569.839 78.9298C539.476 48.6268 506.902 23.5256 472.479 3.92845C406.604 -37.4433 329.607 -71.0729 244.854 -94.3294C320.365 -122.788 395.877 -138.302 466.934 -138.302C571.687 -138.302 658.683 -105.428 719.013 -42.9776C799.343 40.1287 825.251 166.845 791.919 314.247C783.404 351.203 771.556 388.492 756.375 425.448C733.437 336.051 698.62 255.516 655.683 186.805M158.252 -113.896C97.1637 -124.965 33.1364 -130.893 -33.1029 -130.893C-438.781 -130.893 -768.947 89.6659 -768.947 360.82C-768.947 490.863 -694.92 612.407 -560.199 704.375C-560.199 705.493 -560.927 706.582 -560.927 707.338C-598.319 872.462 -567.593 1016.17 -474.688 1112.22C-403.995 1185.38 -304.06 1223.79 -184.853 1223.79C-141.916 1223.79 -97.4939 1218.62 -51.9808 1208.64C40.9239 1347.9 164.918 1424.75 297.427 1424.75C569.111 1424.75 790.101 1095.23 790.101 689.979C790.101 627.921 784.919 567.709 775.284 510.43C806.009 449.854 829.311 387.796 843.401 325.708C853.401 281.01 858.583 237.794 858.946 196.785V190.131C858.219 82.2565 823.797 -10.8299 757.163 -79.5408C686.833 -152.304 586.535 -190.742 467.722 -190.742C368.909 -190.742 262.307 -163.766 158.646 -114.259" fill="url(#paint0_linear_2303_2011)"/>
<defs>
<linearGradient id="paint0_linear_2303_2011" x1="44.9995" y1="-190.742" x2="44.9995" y2="1424.75" gradientUnits="userSpaceOnUse">
<stop stop-color="#CE9728"/>
<stop offset="0.19" stop-color="#E5B543"/>
<stop offset="0.4" stop-color="#FCE674"/>
<stop offset="0.6" stop-color="#EDC04D"/>
<stop offset="0.8" stop-color="#D19A29"/>
<stop offset="1" stop-color="#EEB538"/>
</linearGradient>
</defs>
</svg>
