<svg width="123" height="122" viewBox="0 0 123 122" fill="none" xmlns="http://www.w3.org/2000/svg">
<path d="M80.3689 87.5677C72.7211 93.8977 64.2755 98.423 55.9926 100.728C54.6118 98.3685 53.371 95.8138 52.293 93.1204C53.8389 93.3159 55.4118 93.4249 57.0413 93.4249C64.5218 93.4249 72.529 91.343 80.3689 87.5677ZM38.2698 82.3469C36.3375 80.3195 34.9295 77.9602 33.8538 75.4055C37.194 76.3783 40.6722 77.1261 44.2881 77.6261C44.7582 81.0695 45.4475 84.4288 46.3583 87.6495C43.2395 86.4563 40.5343 84.6789 38.2969 82.3469M25.4602 95.2296C19.6904 89.2042 17.731 80.0694 19.8283 69.4914C22.755 71.1847 25.8738 72.6575 29.1869 73.8781C30.3734 78.1261 32.4435 81.9287 35.4538 85.0675C38.767 88.511 42.9344 90.9248 47.7934 92.2589C48.9799 95.591 50.3879 98.7276 52.0444 101.671C49.3935 102.171 46.799 102.421 44.2588 102.421C36.446 102.421 29.9576 99.9231 25.4579 95.2296M55.6333 78.433C73.7155 78.433 89.7817 72.4916 99.8025 63.3841C97.7323 67.5481 95.165 71.6302 92.1005 75.5168C81.0017 84.3743 68.3322 89.5088 57.0413 89.5088C54.8333 89.5088 52.7631 89.286 50.7743 88.8974C49.6692 85.4539 48.8149 81.8173 48.2612 78.042C50.6907 78.2648 53.1202 78.4034 55.6039 78.4034L55.631 78.4307L55.6333 78.433ZM58.1735 104.142C68.4158 101.06 78.823 94.841 87.7116 86.2335C90.3331 83.7061 92.7355 81.0422 94.9435 78.292C96.8487 76.7374 98.7245 75.0986 100.519 73.3508C105.321 68.7141 109.38 63.6046 112.693 58.302C112.969 60.884 113.08 63.5501 113.08 66.2434C113.08 94.5069 98.338 117.552 80.2287 117.552C72.0295 117.552 64.2732 112.831 58.1713 104.196M107.783 53.0288C108.996 50.5582 109.826 48.0035 110.239 45.3374C110.874 47.5034 111.398 49.7241 111.812 52.0288C109.631 56.1109 106.98 60.1089 103.861 63.9114C105.545 60.3021 106.869 56.6655 107.783 52.9993M20.7956 65.5229C23.0872 57.5542 27.4219 49.5581 33.4108 42.3122C29.0219 51.6401 27.2004 61.0817 28.2761 69.3255C25.6252 68.214 23.1414 66.9367 20.7956 65.5229ZM32.4164 70.8824C29.9869 59.2225 34.5973 44.1168 45.1153 30.7636C49.0635 27.627 53.2038 24.9609 57.4277 22.8221C56.2141 24.2654 55.0818 25.7928 53.9767 27.4588C47.2126 37.8437 43.4587 51.5856 43.4587 66.1889C43.4587 68.6868 43.5966 71.1597 43.8181 73.6008C39.8427 72.9894 36.0324 72.0734 32.4164 70.8801M47.7934 74.0736C47.5448 71.4916 47.3798 68.855 47.3798 66.1889C47.3798 52.3356 50.885 39.3415 57.2356 29.5953C60.3544 24.82 63.9433 21.1265 67.8643 18.6559C72.034 17.4626 76.1472 16.8239 80.0931 16.8239C87.8788 16.8239 94.365 19.2946 98.894 23.9881L98.9211 24.0427C104.883 30.2613 106.818 39.812 104.332 50.8628C104.248 51.1673 104.167 51.5015 104.083 51.806C97.3753 64.9661 78.2151 74.4895 55.6604 74.4895H55.6062C52.9552 74.4895 50.3607 74.3236 47.7663 74.0463M70.4588 9.82798C72.5018 10.2439 74.4613 10.7167 76.3935 11.2713C72.8883 11.7986 69.4915 13.0759 66.262 15.0465C63.1138 15.9625 59.9951 17.2399 56.8763 18.74C61.1838 15.1579 65.7942 12.1872 70.4588 9.82798ZM4.61857 41.4507C4.61857 23.238 27.5032 8.3847 55.6084 8.3847C58.508 8.3847 61.3239 8.55062 64.1105 8.85746C59.0029 11.9122 54.0332 15.6875 49.4793 20.1015C46.8849 22.5994 44.5367 25.2382 42.3852 27.9316C40.4258 29.5135 38.4935 31.1795 36.6697 32.9842C27.4219 41.953 20.7142 52.5584 17.3739 63.2478C9.12047 57.1951 4.62083 49.5036 4.62083 41.4257M106.982 28.4021C105.961 26.5974 104.718 24.8473 103.31 23.1835C102.786 22.5175 102.261 21.9061 101.681 21.2947C101.321 20.9333 100.935 20.6015 100.575 20.2674C98.3109 17.9899 95.8814 16.1034 93.3141 14.6306C88.4009 11.5213 82.6582 8.99383 76.337 7.24598C81.9689 5.10719 87.6008 3.9412 92.9005 3.9412C100.713 3.9412 107.202 6.41183 111.701 11.1054C117.693 17.3513 119.625 26.8747 117.139 37.9528C116.504 40.7302 115.62 43.5327 114.488 46.3102C112.777 39.5915 110.18 33.5388 106.978 28.3748M69.878 5.77542C65.3219 4.94354 60.5465 4.49805 55.6062 4.49805C25.3494 4.49805 0.724609 21.0743 0.724609 41.453C0.724609 51.2264 6.24576 60.3612 16.2937 67.2731C16.2937 67.3571 16.2394 67.439 16.2394 67.4958C13.4506 79.9058 15.7422 90.7066 22.6714 97.9253C27.9439 103.423 35.3974 106.31 44.2881 106.31C47.4905 106.31 50.8037 105.921 54.1982 105.171C61.1273 115.638 70.3752 121.413 80.2581 121.413C100.521 121.413 117.003 96.6479 117.003 66.1912C117.003 61.5272 116.617 57.0019 115.898 52.697C118.19 48.1444 119.928 43.4804 120.979 38.8142C121.724 35.4548 122.111 32.2069 122.138 29.1248V28.6248C122.084 20.5174 119.516 13.5214 114.547 8.35742C109.301 2.88885 101.821 0 92.9593 0C85.5894 0 77.6388 2.02742 69.9074 5.74814" fill="url(#paint0_linear_2291_620)"/>
<defs>
<linearGradient id="paint0_linear_2291_620" x1="61.4313" y1="0" x2="61.4313" y2="121.413" gradientUnits="userSpaceOnUse">
<stop stop-color="#CE9728"/>
<stop offset="0.29" stop-color="#E5B543"/>
<stop offset="0.54" stop-color="white"/>
<stop offset="0.5401" stop-color="#FCE674"/>
<stop offset="0.63" stop-color="#EDC04D"/>
<stop offset="0.75" stop-color="#EEB538"/>
<stop offset="0.9375" stop-color="#D19A29"/>
</linearGradient>
</defs>
</svg>

